<?xml version="1.0" encoding="UTF-8"?>
<svg id="Calque_2" xmlns="http://www.w3.org/2000/svg" viewBox="0 0 4.75 3.44">
  <defs>
    <style>
      .cls-1 {
        fill: #0035ad;
      }
    </style>
  </defs>
  <g id="picto">
    <path class="cls-1" d="M0,2.24c0,.06,0,.11.02.17.01.06.03.11.05.16.02.05.05.09.09.12.04.03.08.05.14.05.07,0,.14-.02.19-.07.05-.05.08-.11.08-.19,0-.04,0-.08-.02-.11-.01-.03-.02-.07-.02-.11,0-.07.02-.13.05-.19.03-.06.07-.11.1-.16.04-.05.07-.1.1-.15.03-.05.05-.1.05-.15,0-.08-.02-.14-.07-.19-.05-.05-.11-.07-.17-.07-.09,0-.15,0-.19.04-.04.04-.07.07-.1.11-.07.1-.14.21-.21.33C.02,1.96,0,2.09,0,2.24ZM.48.76c0,.09.02.18.05.25.03.08.08.15.14.21.06.06.13.11.21.14.08.03.16.05.26.05s.17-.02.25-.05c.08-.03.15-.08.21-.14.06-.06.11-.13.14-.21s.05-.16.05-.25c0-.03,0-.06,0-.08,0-.03,0-.06-.02-.08.08,0,.14-.04.2-.09.05-.05.08-.12.08-.2s-.03-.15-.08-.21c-.06-.06-.12-.08-.21-.08-.07,0-.13.02-.18.06-.05.04-.09.09-.1.15-.05-.03-.1-.05-.16-.07-.06-.02-.11-.03-.17-.03-.06,0-.12,0-.18.03-.06.02-.11.04-.16.07-.02-.06-.05-.11-.1-.15-.05-.04-.11-.06-.17-.06-.08,0-.15.03-.21.08-.06.06-.09.12-.09.21s.03.15.08.21c.05.06.12.09.2.09-.02.06-.03.12-.03.17ZM.71,3.44c.1,0,.18-.03.25-.1.07-.07.1-.15.1-.25s-.03-.18-.1-.25c-.07-.07-.15-.1-.25-.1s-.18.03-.25.1c-.07.07-.1.15-.1.25s.03.18.1.25c.07.07.15.1.25.1ZM.87.6s.06.01.09.03c.02.02.03.05.03.09,0,.04-.01.06-.03.09-.02.02-.05.03-.09.03-.04,0-.07-.01-.09-.03-.02-.02-.03-.05-.03-.09,0-.04.01-.07.03-.09.02-.02.05-.03.09-.03ZM1,1.04h.25l-.13.25-.13-.25ZM1.56,3.44c.1,0,.18-.03.25-.1.07-.07.1-.15.1-.25s-.03-.18-.1-.25c-.07-.07-.15-.1-.25-.1s-.18.03-.25.1c-.07.07-.1.15-.1.25s.03.18.1.25c.07.07.15.1.25.1ZM1.39.59s.06.01.09.04c.02.02.04.06.04.09,0,.04-.01.07-.04.09-.02.02-.05.04-.09.04s-.07-.01-.09-.04-.04-.05-.04-.09c0-.04.01-.07.04-.09.03-.02.06-.04.09-.04ZM2.27,2.23c0-.14-.03-.27-.09-.39-.06-.12-.13-.23-.2-.33-.03-.04-.07-.08-.1-.11-.04-.04-.1-.05-.19-.04-.06,0-.12.03-.17.07-.05.05-.07.11-.07.18,0,.05.02.1.05.15.03.05.07.1.1.15.04.05.07.11.1.16.03.06.05.12.05.19,0,.04,0,.08-.02.11-.01.03-.02.07-.02.11,0,.07.03.13.08.18.05.05.12.08.19.08.06,0,.1-.02.14-.05.04-.03.07-.07.09-.12.02-.05.04-.1.05-.16,0-.06.01-.12.02-.17ZM4.75,2.47h-2.25v.91h.53c0-.09.03-.18.07-.26.04-.08.1-.15.17-.2.07-.05.16-.09.24-.11.09-.02.18-.01.26.01.13.03.23.1.31.2.08.1.12.22.13.35h.53v-.91h0ZM2.81,1.81h1.65v-.29h-1.65v.29ZM2.81,1.87v.57h.49v-.57h-.49ZM3.17,1.47h.93v-.62h-.93v.62ZM3.41.79h.44V.19h-.44v.61ZM3.97,1.85v.57h.49v-.57h-.49Z"/>
  </g>
</svg>